<svg xmlns="http://www.w3.org/2000/svg" viewBox="0 0 32 32">
  <rect width="32" height="32" fill="white" rx="3"/>
  <g transform="translate(4, 4) scale(0.75)">
    <!-- B Letter Logo Content - Simplified version based on the design -->
    <rect x="0" y="0" width="16" height="32" fill="#ff6b35"/>
    <rect x="16" y="0" width="16" height="32" fill="#1e40af"/>
    
    <!-- Left side geometric pattern (simplified) -->
    <rect x="2" y="2" width="10" height="2" fill="white"/>
    <rect x="2" y="6" width="8" height="2" fill="white"/>
    <rect x="2" y="10" width="6" height="2" fill="white"/>
    <circle cx="8" cy="11" r="1.5" fill="#ff6b35"/>
    
    <rect x="2" y="18" width="10" height="2" fill="white"/>
    <rect x="2" y="22" width="8" height="2" fill="white"/>
    <rect x="2" y="26" width="6" height="2" fill="white"/>
    <circle cx="8" cy="27" r="1.5" fill="#ff6b35"/>
    
    <!-- Right side B shape (simplified) -->
    <path d="M20 4 Q28 4 28 10 Q28 16 24 16 Q28 16 28 22 Q28 28 20 28 L16 28 L16 4 Z" fill="white"/>
  </g>
</svg>